<?xml version="1.0" encoding="UTF-8" standalone="no"?>
<!-- Generator: Adobe Illustrator 13.0.0, SVG Export Plug-In . SVG Version: 6.00 Build 14948)  -->

<svg
   xmlns:dc="http://purl.org/dc/elements/1.1/"
   xmlns:cc="http://creativecommons.org/ns#"
   xmlns:rdf="http://www.w3.org/1999/02/22-rdf-syntax-ns#"
   xmlns:svg="http://www.w3.org/2000/svg"
   xmlns="http://www.w3.org/2000/svg"
   xmlns:sodipodi="http://sodipodi.sourceforge.net/DTD/sodipodi-0.dtd"
   xmlns:inkscape="http://www.inkscape.org/namespaces/inkscape"
   version="1.1"
   id="Layer_1"
   x="0px"
   y="0px"
   width="91.085px"
   height="91.084px"
   viewBox="0 0 91.085 91.084"
   enable-background="new 0 0 91.085 91.084"
   xml:space="preserve"
   inkscape:version="0.91 r13725"
   sodipodi:docname="boots-circle_simple.svg"><metadata
     id="metadata3754"><rdf:RDF><cc:Work
         rdf:about=""><dc:format>image/svg+xml</dc:format><dc:type
           rdf:resource="http://purl.org/dc/dcmitype/StillImage" /></cc:Work></rdf:RDF></metadata><defs
     id="defs3752" /><sodipodi:namedview
     pagecolor="#ffffff"
     bordercolor="#666666"
     borderopacity="1"
     objecttolerance="10"
     gridtolerance="10"
     guidetolerance="10"
     inkscape:pageopacity="0"
     inkscape:pageshadow="2"
     inkscape:window-width="1440"
     inkscape:window-height="851"
     id="namedview3750"
     showgrid="false"
     inkscape:zoom="5.1820298"
     inkscape:cx="60.578269"
     inkscape:cy="49.734887"
     inkscape:window-x="0"
     inkscape:window-y="1"
     inkscape:window-maximized="1"
     inkscape:current-layer="Layer_1" /><g
     id="g3684"><path
       d="M19.901,30.942l-7.419-5.496l0.557-0.751l0.843,0.625c-0.226-0.806-0.188-1.757,0.432-2.574   c0.837-1.111,2.562-0.911,3.89,0.073c1.713,1.269,2.114,2.814,1.145,4.124c-0.34,0.458-1.064,0.843-1.857,1.051l2.967,2.198   L19.901,30.942z M14.871,26.052l1.776,1.316c0.782-0.116,1.596-0.506,1.948-0.983c0.604-0.815,0.273-1.882-0.963-2.798   c-0.924-0.685-2.084-0.92-2.568-0.285C14.35,24.248,14.631,25.42,14.871,26.052z"
       id="path3686" /></g><g
     id="g3688"><path
       d="M23.096,19.507l-2.644-2.957l0.714-0.638l4.178,4.673l-0.713,0.638l-0.736-0.824c-0.08,0.973-0.456,2.074-1.213,2.75   c-0.773,0.691-1.572,0.413-2.378-0.488l-2.97-3.322l0.713-0.638l2.971,3.322c0.41,0.459,0.786,0.673,1.049,0.438   C22.908,21.708,23.063,20.377,23.096,19.507z"
       id="path3690" /></g><g
     id="g3692"><path
       d="M29.75,14.1c1.068,1.845,0.822,3.422-0.588,4.239c-0.493,0.286-1.265,0.456-2.074,0.332l0.309,0.533l-0.818,0.474   l-4.684-8.088l0.818-0.474l1.947,3.363c0.161-0.725,0.474-1.367,1.361-1.881C27.491,11.746,28.922,12.669,29.75,14.1z    M25.249,15.495l1.313,2.269c0.764,0.204,1.636,0.094,2.147-0.204c0.879-0.508,0.982-1.648,0.211-2.98   c-0.576-0.996-1.558-1.667-2.432-1.174C25.527,13.951,25.279,14.819,25.249,15.495z"
       id="path3694" /></g><g
     id="g3696"><path
       d="M30.053,7.46l2.808,7.151c0.096,0.244,0.221,0.562,0.413,0.646c0.222,0.097,0.47,0.073,0.767-0.044l0.265,0.766   c-0.33,0.129-0.979,0.347-1.437,0.147c-0.518-0.226-0.733-0.777-0.888-1.169l-2.808-7.151L30.053,7.46z"
       id="path3698" /></g><g
     id="g3700"><path
       d="M33.539,6.893c0.318-0.092,0.629,0.079,0.721,0.397c0.095,0.328-0.076,0.639-0.395,0.73   c-0.328,0.095-0.639-0.077-0.733-0.405C33.04,7.298,33.211,6.987,33.539,6.893z M34.686,9.172l1.74,6.022l-0.909,0.263   l-1.741-6.022L34.686,9.172z"
       id="path3702" /></g><g
     id="g3704"><path
       d="M41.545,8.738l-0.512,0.654c0,0-0.491-0.651-1.438-0.507c-0.778,0.118-1.567,1.068-1.311,2.758   c0.188,1.24,0.99,2.19,1.981,2.039c0.44-0.067,0.833-0.208,1.402-0.939l0.672,0.475c-0.751,1.048-1.372,1.211-1.947,1.299   c-1.555,0.237-2.787-0.971-3.055-2.729c-0.354-2.333,0.945-3.568,2.15-3.751C40.763,7.843,41.545,8.738,41.545,8.738z"
       id="path3706" /></g><g
     id="g3708"><path
       d="M44.37,4.72l0.158,7.681c0.005,0.262,0.012,0.604,0.164,0.749c0.174,0.168,0.414,0.231,0.733,0.225l-0.018,0.81   c-0.354,0.007-1.037-0.013-1.398-0.359c-0.406-0.391-0.419-0.983-0.428-1.404l-0.157-7.681L44.37,4.72z"
       id="path3710" /></g><g
     id="g3712"><path
       d="M47.064,8.639c0.434-0.178,1.849-0.779,3.104-0.631c1.302,0.154,1.363,1.378,1.294,1.966l-0.396,3.351   c-0.006,0.046-0.07,0.497,0.518,0.865l-0.679,0.493c-0.518-0.279-0.7-0.668-0.756-1.076c-0.612,0.513-1.405,0.82-2.243,0.722   c-0.249-0.029-1.74-0.332-1.554-1.905c0.095-0.804,0.536-1.716,2.482-1.772c0.839-0.016,1.325-0.038,1.604-0.074l0.084-0.714   c0.028-0.236,0.051-0.911-0.595-0.988c-0.962-0.113-2.583,0.59-2.581,0.579C47.348,9.441,47.051,8.659,47.064,8.639z    M50.185,12.727l0.158-1.335c-0.347,0.027-0.751,0.037-1.5,0.063c-1.257,0.046-1.501,0.557-1.562,1.077   c-0.093,0.781,0.516,0.968,0.684,0.999C48.752,13.682,49.665,13.239,50.185,12.727z"
       id="path3714" /></g><g
     id="g3716"><path
       d="M58.755,13.5c-0.665,2.025-2.005,2.894-3.554,2.385c-0.541-0.178-1.182-0.639-1.629-1.326l-0.191,0.585l-0.899-0.295   l2.913-8.881l0.9,0.295l-1.212,3.693c0.647-0.362,1.335-0.558,2.31-0.237C59.006,10.248,59.27,11.931,58.755,13.5z M54.717,11.072   l-0.816,2.49c0.355,0.705,1.018,1.282,1.582,1.467c0.963,0.316,1.883-0.365,2.363-1.827c0.359-1.094,0.205-2.272-0.745-2.596   C56.055,10.251,55.241,10.645,54.717,11.072z"
       id="path3718" /></g><g
     id="g3720"><path
       d="M59.625,16.214c0.338,0.165,0.463,0.531,0.297,0.869c-0.176,0.358-0.546,0.493-0.884,0.328   c-0.358-0.176-0.488-0.557-0.312-0.915C58.891,16.158,59.267,16.038,59.625,16.214z"
       id="path3722" /></g><g
     id="g3724"><path
       d="M66.291,14.12c1.139,0.758,1.773,2.251,0.451,4.232c-1.34,2.011-2.943,1.969-4.081,1.211   c-1.138-0.76-1.823-2.176-0.451-4.234C63.538,13.339,65.153,13.36,66.291,14.12z M65.855,14.774   c-0.721-0.48-1.837-0.431-2.849,1.086c-0.999,1.499-0.636,2.578,0.085,3.059s1.836,0.43,2.854-1.098   C66.926,16.352,66.576,15.255,65.855,14.774z"
       id="path3726" /></g><g
     id="g3728"><path
       d="M70.913,17.917l-0.588,0.621c0.76-0.224,1.369-0.07,1.833,0.368c0.711,0.674,0.67,1.497,0.67,1.497l-0.919,0.01   c0,0,0.044-0.445-0.345-0.812c-0.529-0.502-1.548-0.256-2.266,0.021l-2.695,2.848l-0.695-0.658l4.309-4.553L70.913,17.917z"
       id="path3730" /></g><g
     id="g3732"><path
       d="M71.84,24.21c-0.076-0.598,0.098-1.281,0.902-1.88c1.144-0.85,2.528,0.039,3.086,0.789   c0.137,0.184,0.266,0.414,0.373,0.674c0.617,0.125,1.206,0.496,1.566,0.981c0.129,0.173,0.236,0.394,0.316,0.616l-0.734,0.348   c-0.045-0.137-0.137-0.297-0.258-0.461c-0.191-0.256-0.443-0.481-0.698-0.633c0.044,0.593-0.122,1.212-0.708,1.647   c-1.453,1.081-2.658,0.073-3.215-0.677c-0.123-0.166-0.256-0.364-0.362-0.583c-0.428-0.138-0.876-0.187-1.133,0.003   c-0.017,0.111,0.595,0.936,0.743,1.153c0.826,1.245,1.646,2.809,0.43,3.713c-1.106,0.823-2.656,0.726-3.969-1.041   c-0.857-1.153-0.891-2.746-0.012-3.398c0.811-0.591,1.342-0.487,1.988-0.286c-0.08-0.338-0.062-0.677,0.248-0.908   C70.725,24.029,71.273,24.062,71.84,24.21z M71.584,29.143c0.668-0.496,0.023-1.594-0.549-2.461   c-0.13-0.174-0.298-0.418-0.48-0.665c-0.586-0.233-1.052-0.383-1.83,0.195c-0.53,0.394-0.393,1.456,0.123,2.151   C69.766,29.6,70.844,29.693,71.584,29.143z M73.057,25.18c0.34,0.457,1.105,1.067,2.065,0.354c0.751-0.559,0.46-1.521,0.12-1.979   s-1.186-1.022-1.936-0.465C72.264,23.865,72.717,24.723,73.057,25.18z"
       id="path3734" /></g><path
     fill="#000100"
     d="M48.061,28.678c0.002,0.021,3.653,17.685,3.988,21.385c0.049,0.543,0.07,1.034,0.072,1.482  c0,2.169-0.479,3.412-0.483,4.986c0,0.326,0.021,0.66,0.072,1.021c0.213,1.476,0.542,2.165,0.538,3.117  c0,0.618-0.131,1.374-0.529,2.566c-0.271,0.812-0.425,1.674-0.425,2.519c-0.015,2.409,1.307,4.728,4.673,5.235  c1.027,0.157,2.024,0.277,2.961,0.279c0.035,0,0.068,0,0.104,0c3.069,0,5.458-1.551,5.677-7.277  c0.017-0.331,0.023-0.648,0.023-0.956c-0.013-6.438-3.134-8.094-3.103-11.75c0-0.177,0.007-0.359,0.019-0.544  c0.34-4.402,2.799-22.887,2.803-22.907c0.001-0.018-0.011-0.03-0.013-0.046c0.027-0.116,0.046-0.234,0.051-0.357  c-0.005-0.735-0.447-1.49-1.176-2.322c-1.261-1.435-3.525-2.025-5.979-2.028c-2.456,0.001-5.113,0.601-7.189,1.638  c-1.4,0.698-2.153,1.741-2.155,2.815C47.988,27.534,47.955,27.911,48.061,28.678z M50.238,24.908L50.238,24.908L50.238,24.908  L50.238,24.908c4.078-2.04,10.536-2.379,12.915,0.341c2.38,2.718,1.36,4.419-6.798,5.438C48.198,31.707,46.16,26.947,50.238,24.908z  "
     id="path3736"
     style="stroke-width:0.4;stroke-miterlimit:4;stroke-dasharray:none;stroke:#000000;stroke-opacity:1" /><path
     d="M48.324,26.88c-0.003,0.005-0.002,0.01-0.004,0.016l0.012-0.002C48.332,26.893,48.326,26.881,48.324,26.88z   M22.323,57.306c0.002,1.938,0.871,3.313,1.02,3.54c0.05,0.146,0.262,0.565,1.035,0.949c0.897,0.446,2.54,0.873,5.618,0.873  c5.814-0.007,13.939-3.603,14.941-4.055l1.605,0.964l0.109,0.032c0.014-0.045,3.423,0.108,3.942-1.521  c0.148-0.587,0.311-1.422,0.311-2.829c0-1.919-0.296-4.905-1.328-9.842c-0.664-3.186-0.867-6.245-0.867-8.805  c0-1.5,0.069-2.823,0.158-3.907c-0.473-2.351-0.807-3.968-0.808-3.974c-0.105-0.768-0.072-1.145-0.072-1.145  c0-0.274,0.051-0.546,0.147-0.811c-1.021,0.721-2.729,1.363-5.562,1.691c-8.838,1.02-14.956-1.36-11.217-3.4  c3.739-2.04,18.014-1.698,18.014-1.698s0.409,0.834,0.051,1.841c0.089-0.063,0.177-0.127,0.274-0.187  c0.059-0.231,0.093-0.455,0.091-0.659c0-0.638-0.219-1.072-0.228-1.092c-0.035-0.069-0.105-0.112-0.182-0.114  c-0.003,0-0.901-0.022-2.31-0.022c-4.215,0.008-12.893,0.171-15.813,1.746c-0.786,0.431-1.219,0.901-1.228,1.449  c0.001,0.035,0.014,0.066,0.018,0.1c-0.014,0.038-0.028,0.078-0.017,0.12l5.719,22.7l0.066,0.105h-0.009  c0.005,0.009-0.028,0.193-0.52,0.493c-0.483,0.299-1.38,0.698-2.97,1.188c-4.351,1.363-8.519,0.956-9.656,4.214  C22.416,55.979,22.322,56.672,22.323,57.306z"
     id="path3738"
     fill="#000100"
     style="stroke-width:0.4;stroke-miterlimit:4;stroke-dasharray:none;stroke:#000000;stroke-opacity:1" /><g
     id="g3740"
     style="stroke:#000000;stroke-opacity:1;stroke-width:0.1;stroke-miterlimit:4;stroke-dasharray:none"><path
       fill="#000100"
       d="M41.253,79.987c-0.267-0.177-0.439-0.392-0.441-0.653l0,0c0.037-0.519,0.547-0.798,1.192-1.103l0,0   c0.657-0.292,1.519-0.554,2.378-0.777l0,0c1.718-0.444,3.427-0.729,3.431-0.729l0,0l0.058-0.003   c0.018,0.017,3.287,0.331,4.478,2.26l0,0c0.073,0.118,0.113,0.246,0.113,0.378l0,0c-0.06,0.687-0.857,0.955-1.898,1.204l0,0   c-1.064,0.231-2.466,0.347-3.876,0.347l0,0C44.463,80.903,42.25,80.64,41.253,79.987L41.253,79.987z M42.174,78.618   c-0.635,0.266-0.978,0.604-0.94,0.716l0,0c-0.002,0.051,0.037,0.155,0.253,0.303l0,0c0.804,0.549,3.026,0.857,5.201,0.851l0,0   c1.386,0.002,2.768-0.116,3.785-0.336l0,0c1.04-0.203,1.606-0.598,1.567-0.791l0,0c0-0.041-0.015-0.096-0.053-0.16l0,0   c-0.918-1.575-3.808-2.012-4.133-2.054l0,0C47.504,77.209,43.953,77.826,42.174,78.618L42.174,78.618z M47.825,77.144l0.022-0.212   L47.825,77.144L47.825,77.144z"
       id="path3742"
       style="stroke:#000000;stroke-opacity:1;stroke-width:0.1;stroke-miterlimit:4;stroke-dasharray:none" /><path
       d="M51.713,55.413c-0.267-0.024-0.536-0.046-0.81-0.066c-0.001,0.147-0.003,0.29-0.008,0.425   c0.262,0.019,0.52,0.04,0.776,0.063C51.685,55.693,51.696,55.553,51.713,55.413z M74.5,63.441c-1.467-0.314-3.619-0.47-6.438-0.472   c-0.895,0.002-1.858,0.019-2.885,0.05c-0.154,0.005-0.298,0.009-0.446,0.014c0,0.001,0,0.001,0,0.002   c0,0.136-0.008,0.282-0.011,0.423c0.157-0.005,0.31-0.01,0.47-0.016c1.025-0.032,1.983-0.049,2.872-0.049   c2.8,0,4.935,0.157,6.349,0.46c1.437,0.301,2.045,0.773,2.013,1.176c0.026,0.438-0.65,1.218-2.168,2.112   c-5.032,3.008-12.329,6.202-20.558,7.248c-0.59,0.075-1.138,0.107-1.646,0.109c-4.647,0.014-6.049-2.852-8.755-2.901   c-1.063,0.001-2.263,0.482-3.854,1.753c-2.177,1.74-5.736,2.466-8.952,2.462c-1.917,0.002-3.714-0.255-5.011-0.685   c-1.315-0.426-2.054-1.046-2.03-1.591c-0.012-0.444,0.46-1.082,1.741-1.76c3.844-2.093,5.957-3.708,6.02-4.977   c-0.051-0.932-1.123-1.273-3.017-1.281c-0.625,0-1.351,0.041-2.184,0.128c-0.455,0.049-0.894,0.067-1.317,0.069   c-1.684,0-3.084-0.355-4.045-0.905c-0.966-0.555-1.476-1.283-1.474-2.047c-0.017-1.041,0.992-2.329,3.496-3.414   c-0.043-0.129-0.082-0.264-0.119-0.407c-2.613,1.118-3.784,2.487-3.8,3.821c0.032,1.943,2.478,3.368,5.943,3.373   c0.437,0.002,0.892-0.021,1.361-0.068c0.821-0.086,1.534-0.126,2.14-0.126c0.935-0.002,1.617,0.098,2.037,0.264   c0.427,0.175,0.554,0.36,0.557,0.594c0.062,0.791-1.968,2.584-5.795,4.604c-1.316,0.707-1.952,1.396-1.964,2.133   c0.116,1.778,3.567,2.656,7.462,2.698c3.277-0.001,6.906-0.717,9.218-2.555c1.555-1.241,2.662-1.66,3.588-1.66   c2.335-0.047,3.922,2.886,8.755,2.901c0.526,0,1.092-0.035,1.698-0.112c8.304-1.059,15.649-4.271,20.722-7.305   c1.535-0.935,2.347-1.685,2.373-2.476C76.813,64.209,75.945,63.757,74.5,63.441z"
       id="path3744"
       style="stroke:#000000;stroke-opacity:1;stroke-width:0.1;stroke-miterlimit:4;stroke-dasharray:none" /></g><path
     fill="#000100"
     d="M45.669,59l-0.377-0.226L45.669,59L45.669,59z M22.872,59.889c-0.004-0.01-0.008-0.021-0.012-0.031  l-0.001,0.001C22.864,59.869,22.868,59.878,22.872,59.889z M23.048,60.271c-0.009-0.019-0.019-0.037-0.027-0.057  c0.008,0.018,0.018,0.042,0.026,0.059L23.048,60.271z M50.16,45.969h-0.461c0.025,0.129,0.052,0.256,0.077,0.384L50.16,45.969z   M49.115,59.223L49.115,59.223c0.001,0,0.003-0.001,0.004-0.001C49.118,59.222,49.117,59.223,49.115,59.223z M38.955,60.855  c-0.007,0.003-0.013,0.005-0.019,0.007h0C38.942,60.86,38.949,60.858,38.955,60.855z M39.837,60.561  c-0.012,0.004-0.024,0.009-0.036,0.014C39.813,60.569,39.826,60.565,39.837,60.561L39.837,60.561z M26.799,52.251l6.281-6.282  h-0.599l-6.505,6.506C26.241,52.395,26.514,52.319,26.799,52.251z M2.599,45.969l-1.685,1.684c0.009,0.192,0.013,0.385,0.025,0.575  l2.259-2.259H2.599z M51.853,48.546c-0.025-0.166-0.052-0.338-0.081-0.521l-1.432,1.433c0.028,0.172,0.059,0.351,0.084,0.517  L51.853,48.546z M6.866,45.969l-5.591,5.592c0.024,0.176,0.042,0.354,0.069,0.529l6.122-6.121H6.866z M32.314,50.985  c0.009-0.002,0.017-0.006,0.027-0.008l3.078-3.078l-0.121-0.48l-3.805,3.805C31.766,51.15,32.04,51.071,32.314,50.985z   M44.253,77.49l3.511-3.511c-0.138-0.064-0.27-0.132-0.4-0.198l-3.944,3.945C43.692,77.644,43.971,77.564,44.253,77.49z   M51.134,74.881c-0.186-0.017-0.36-0.04-0.536-0.064l-2.028,2.027c0.148,0.03,0.311,0.067,0.487,0.113L51.134,74.881z   M51.881,78.401l3.901-3.901c-0.24,0.042-0.479,0.082-0.721,0.12l-3.497,3.497C51.675,78.207,51.78,78.301,51.881,78.401z   M71.483,63.07l17.101-17.102h-0.602L70.915,63.035C71.112,63.045,71.298,63.058,71.483,63.07z M51.303,65.572L51.303,65.572  c-0.002,0.061-0.009,0.12-0.009,0.182C51.294,65.693,51.301,65.632,51.303,65.572z M67.305,62.978l17.008-17.009h-0.6L66.699,62.983  C66.908,62.979,67.103,62.979,67.305,62.978z M67.234,45.969h-0.599l-4.996,4.996c-0.004,0.107-0.011,0.216-0.011,0.32  c-0.002,0.095,0.008,0.185,0.012,0.277L67.234,45.969z M64.645,61.369l15.4-15.4h-0.601L64.592,60.822  C64.613,60.997,64.627,61.187,64.645,61.369z M62.368,45.969l-0.246,0.246c-0.026,0.23-0.053,0.456-0.078,0.676l0.923-0.922H62.368z   M50.857,53.811l1.222-1.222c0.015-0.201,0.023-0.413,0.03-0.632l-1.292,1.292C50.833,53.443,50.846,53.631,50.857,53.811z   M62.584,54.892l8.923-8.923h-0.602l-8.509,8.509C62.457,54.615,62.519,54.752,62.584,54.892z M63.881,57.862l11.893-11.894h-0.599  L63.723,57.421C63.777,57.562,63.829,57.713,63.881,57.862z M19.673,45.969L3.897,61.744c0.051,0.131,0.098,0.262,0.15,0.393  c0.005,0.014,0.011,0.027,0.016,0.041l16.209-16.209H19.673z M37.747,74.858L26.583,86.021c0.137,0.063,0.276,0.124,0.413,0.187  l12.115-12.114C38.684,74.375,38.234,74.638,37.747,74.858z M48.871,80.812l-9.052,9.052c0.177,0.021,0.354,0.047,0.532,0.066  l9.195-9.195C49.328,80.764,49.104,80.79,48.871,80.812z M60.5,73.452L43.757,90.194c0.194,0.009,0.391,0.01,0.585,0.015  l16.987-16.986C61.055,73.303,60.777,73.377,60.5,73.452z M41.253,79.987c-0.02-0.013-0.035-0.027-0.054-0.042l-8.431,8.432  c0.155,0.047,0.311,0.089,0.466,0.133l8.348-8.348C41.465,80.105,41.349,80.051,41.253,79.987z M44.59,72.283L29.581,87.294  c0.144,0.056,0.286,0.116,0.43,0.17L45.005,72.47C44.867,72.401,44.729,72.339,44.59,72.283z M44.597,80.817l-8.43,8.43  c0.165,0.035,0.328,0.074,0.493,0.107l8.493-8.494C44.964,80.85,44.781,80.834,44.597,80.817z M53.587,89.504l35.906-35.905  c0.045-0.247,0.096-0.49,0.138-0.738L52.857,89.634C53.102,89.594,53.345,89.548,53.587,89.504z M66.976,71.246L48.057,90.165  c0.217-0.012,0.432-0.033,0.647-0.049l19.305-19.305C67.67,70.958,67.324,71.103,66.976,71.246z M74.725,63.496  c0.166,0.039,0.324,0.082,0.474,0.127L90.11,48.712c0.015-0.216,0.033-0.43,0.045-0.646L74.725,63.496z M66.715,84.913  l18.183-18.182c0.221-0.409,0.432-0.823,0.639-1.239L65.485,85.543C65.897,85.337,66.311,85.131,66.715,84.913z M59.281,88.079  l28.793-28.794c0.092-0.284,0.174-0.571,0.26-0.857L58.409,88.351C58.702,88.263,58.991,88.173,59.281,88.079z M25.145,66.116  L14.026,77.232c0.1,0.1,0.206,0.194,0.307,0.292l11.441-11.44C25.56,66.101,25.352,66.108,25.145,66.116z M28.211,45.969  L6.642,67.54c0.072,0.127,0.149,0.25,0.223,0.377l21.948-21.948H28.211z M22.452,55.998L8.268,70.183  c0.08,0.121,0.157,0.243,0.237,0.363l13.844-13.845C22.368,56.473,22.404,56.238,22.452,55.998z M18.986,63.73l-8.951,8.952  c0.086,0.112,0.178,0.221,0.265,0.334l8.906-8.905C19.12,63.989,19.049,63.861,18.986,63.73z M23.943,45.969L5.188,64.725  c0.064,0.136,0.126,0.271,0.192,0.406l19.163-19.162H23.943z M32.175,76.164l-8.411,8.409c0.128,0.071,0.252,0.148,0.381,0.219  l8.684-8.685C32.611,76.132,32.393,76.147,32.175,76.164z M15.404,45.969L2.797,58.576c0.046,0.151,0.098,0.303,0.146,0.454  l13.061-13.062H15.404z M27.987,76.079l-6.881,6.882c0.121,0.079,0.244,0.156,0.365,0.234l7.06-7.058  C28.347,76.12,28.166,76.101,27.987,76.079z M24.568,75.23l-5.97,5.97c0.114,0.086,0.227,0.174,0.342,0.259l6.05-6.051  C24.842,75.352,24.702,75.292,24.568,75.23z M11.134,45.969l-9.227,9.228c0.036,0.163,0.076,0.324,0.115,0.485l9.712-9.713H11.134z   M24.316,71.812l5.678-5.678c-0.145-0.041-0.308-0.077-0.496-0.105L16.245,79.282c0.107,0.093,0.213,0.187,0.321,0.278l6.62-6.619  C23.377,72.56,23.753,72.187,24.316,71.812z M21.381,65.608l-9.417,9.417c0.094,0.106,0.185,0.215,0.279,0.32l9.59-9.589  C21.677,65.712,21.527,65.661,21.381,65.608z"
     id="path3746" /><path
     fill="#000100"
     d="M45.543,0C20.39,0,0,20.387,0,45.542v0.422h0.012C0.241,70.92,20.532,91.082,45.541,91.084  c25.013-0.002,45.304-20.164,45.533-45.119h0.011v-0.422C91.085,20.387,70.695,0,45.543,0z M90.228,45.965  c-0.114,12.173-5.086,23.183-13.08,31.18c-8.09,8.089-19.261,13.091-31.606,13.091c-12.342,0-23.513-5.002-31.603-13.091  c-7.997-7.997-12.966-19.007-13.08-31.18h34.061l-0.213-0.847H0.85c0.113-12.177,5.093-23.184,13.088-31.181  c8.089-8.089,19.261-13.09,31.605-13.09c12.342,0,23.515,5,31.604,13.09c7.995,7.997,12.975,19.004,13.089,31.181H62.251  c-0.034,0.288-0.067,0.57-0.1,0.847H90.228z M49.524,45.118c0.021,0.101,0.032,0.198,0.053,0.299  c0.041,0.192,0.073,0.362,0.11,0.548h1.739c-0.049-0.275-0.099-0.558-0.151-0.847H49.524z"
     id="path3748" /></svg>